<svg id="_x31__px" height="512" viewBox="0 0 24 24" width="512" xmlns="http://www.w3.org/2000/svg"><g><g><path d="m22.5 21h-21c-.827 0-1.5-.673-1.5-1.5v-14c0-.827.673-1.5 1.5-1.5h21c.827 0 1.5.673 1.5 1.5v14c0 .827-.673 1.5-1.5 1.5zm-21-16c-.276 0-.5.224-.5.5v14c0 .276.224.5.5.5h21c.276 0 .5-.224.5-.5v-14c0-.276-.224-.5-.5-.5z"/></g><g><path d="m15.5 24h-7c-.202 0-.385-.122-.462-.309-.078-.187-.035-.402.108-.545 1.316-1.316 1.333-2.59 1.333-2.644.001-.275.225-.502.501-.502h4.02c.275 0 .499.222.5.497.001.063.04 1.336 1.354 2.649.143.143.186.358.108.545-.077.187-.26.309-.462.309zm-5.929-1h4.857c-.56-.801-.782-1.537-.87-2h-3.13c-.085.465-.301 1.2-.857 2zm4.929-2.5h.01z"/></g><g><path d="m23.5 18h-23c-.276 0-.5-.224-.5-.5s.224-.5.5-.5h23c.276 0 .5.224.5.5s-.224.5-.5.5z"/></g></g><g><path d="m10 15c-.189 0-.362-.106-.447-.276l-1.862-3.724h-2.191c-.276 0-.5-.224-.5-.5s.224-.5.5-.5h2.5c.189 0 .362.107.447.276l1.518 3.036 2.575-6.009c.077-.179.25-.297.445-.303.196-.006.375.102.462.276l2.862 5.724h2.191c.276 0 .5.224.5.5s-.224.5-.5.5h-2.5c-.189 0-.362-.107-.447-.276l-2.518-5.036-2.575 6.009c-.077.179-.25.297-.445.303-.005 0-.01 0-.015 0z"/></g></svg>